<?xml version="1.0" encoding="utf-8"?>
<!-- Generator: Adobe Illustrator 24.3.0, SVG Export Plug-In . SVG Version: 6.00 Build 0)  -->
<svg version="1.1" id="Capa_1" xmlns="http://www.w3.org/2000/svg" xmlns:xlink="http://www.w3.org/1999/xlink" x="0px" y="0px"
	 viewBox="0 0 268 95" style="enable-background:new 0 0 268 95;" xml:space="preserve">
<style type="text/css">
	.st0{opacity:0.62;fill:#FFFFFF;stroke:#000000;stroke-miterlimit:10;}
	.st1{opacity:0.63;fill:#DDCECC;}
	.st2{opacity:0.35;fill:#D6D6D6;}
	.st3{fill:#787571;}
	.st4{fill:none;stroke:#333333;stroke-width:2;stroke-linecap:round;stroke-linejoin:round;}
	.st5{fill:#008B4E;stroke:#333333;stroke-width:2;stroke-linecap:round;stroke-linejoin:round;}
	.st6{fill:#286B60;stroke:#333333;stroke-width:0.5;stroke-linecap:round;stroke-linejoin:round;}
	.st7{fill:#8AD69A;stroke:#333333;stroke-width:0.75;stroke-linecap:round;stroke-linejoin:round;}
	.st8{fill:#FFFFFF;stroke:#333333;stroke-width:0.5;stroke-linecap:round;stroke-linejoin:round;}
	.st9{fill:#AAC1B7;stroke:#333333;stroke-width:0.5;stroke-linecap:round;stroke-linejoin:round;}
	.st10{fill:#232323;stroke:#333333;stroke-width:0.25;stroke-linecap:round;stroke-linejoin:round;}
	.st11{fill:#34663E;stroke:#333333;stroke-width:0.5;stroke-linecap:round;stroke-linejoin:round;}
	.st12{fill:#7BA386;}
	.st13{fill:#3A3A3A;}
</style>
<g>
	<circle class="st6" cx="42.8" cy="44.78" r="35.66"/>
	<circle class="st7" cx="64.73" cy="58.84" r="20.27"/>
	<path class="st8" d="M56.48,53.76v22.47c0,6.01-5.57,10.88-12.45,10.88H31.36c-6.87,0-12.45-4.87-12.45-10.88V53.76H56.48z"/>
	<path class="st9" d="M68.71,63.17v14.75c0,3.94-3.2,7.14-7.14,7.14H54.3c-3.94,0-7.14-3.2-7.14-7.14V63.17H68.71z"/>
	<ellipse class="st10" cx="57.94" cy="63.37" rx="10.92" ry="0.95"/>
	<ellipse class="st10" cx="36.58" cy="54.35" rx="17.09" ry="1.42"/>
	<path class="st11" d="M34.24,55.42c0,0-11.31-25.3-9.2-47.53c0,0,16.69,18.56,15.02,41.95L34.24,55.42z"/>
	<path class="st12" d="M37.65,56c0,0-8.89-19.95-10.01-38.8c0,0,11.2,13.7,12.67,33.49L37.65,56z"/>
	<path class="st11" d="M38.11,55.73c0,0-2.65-27.86,6.38-47.79c0,0,9.87,23.61,0.87,44.79L38.11,55.73z"/>
	<path class="st12" d="M39.46,55.09c0,0-1.45-21.96,4.75-39.15c0,0,6.28,17.59,0.09,35.77L39.46,55.09z"/>
	<path class="st11" d="M55.72,64.14c0,0-8.24-16.04-6.57-30.31c0,0,12.26,11.65,10.9,26.65L55.72,64.14z"/>
	<path class="st12" d="M55.8,64.14c0,0-4.7-12.25-3.48-23.26c0,0,7.18,8.82,6.13,20.39L55.8,64.14z"/>
	<path class="st11" d="M58.59,64.28c0,0-1.82-17.81,4.97-30.7c0,0,7.18,14.98,0.42,28.68L58.59,64.28z"/>
	<path class="st12" d="M58.66,64.31c0,0,0.1-13.08,5.27-23.05c0,0,3.48,10.66-1.74,21.22L58.66,64.31z"/>
</g>
<g>
	<path class="st13" d="M117.42,38.7v20.05h-2.38V44.02c0-0.2,0.01-0.41,0.02-0.63c0.01-0.22,0.03-0.45,0.05-0.69l-6.88,12.54
		c-0.21,0.42-0.54,0.63-0.98,0.63h-0.39c-0.44,0-0.77-0.21-0.98-0.63l-7.02-12.59c0.06,0.5,0.08,0.95,0.08,1.37v14.73h-2.38V38.7h2
		c0.24,0,0.43,0.02,0.56,0.07c0.13,0.05,0.26,0.18,0.38,0.39l6.93,12.34c0.11,0.22,0.22,0.46,0.33,0.7c0.11,0.24,0.21,0.49,0.3,0.74
		c0.09-0.25,0.19-0.5,0.29-0.75c0.1-0.25,0.21-0.48,0.34-0.71l6.8-12.33c0.11-0.21,0.24-0.34,0.37-0.39s0.32-0.07,0.57-0.07H117.42z
		"/>
	<path class="st13" d="M138.84,58.75h-2.1c-0.24,0-0.44-0.06-0.59-0.18c-0.15-0.12-0.26-0.28-0.34-0.46l-1.88-4.84h-9l-1.88,4.84
		c-0.06,0.17-0.16,0.32-0.32,0.45c-0.16,0.13-0.35,0.2-0.59,0.2h-2.1l8.02-20.05h2.74L138.84,58.75z M133.19,51.31l-3.15-8.16
		c-0.09-0.24-0.19-0.52-0.29-0.85c-0.1-0.32-0.2-0.66-0.29-1.03c-0.2,0.76-0.4,1.39-0.6,1.89l-3.15,8.14H133.19z"/>
	<path class="st13" d="M155.04,54.61c0.15,0,0.28,0.06,0.39,0.18l1.08,1.16c-0.82,0.95-1.82,1.69-2.99,2.22
		c-1.17,0.53-2.59,0.8-4.25,0.8c-1.44,0-2.74-0.25-3.92-0.75c-1.17-0.5-2.18-1.2-3.01-2.1s-1.47-1.98-1.93-3.24
		c-0.46-1.26-0.69-2.64-0.69-4.16c0-1.51,0.24-2.9,0.71-4.16c0.48-1.26,1.15-2.34,2.01-3.25c0.86-0.91,1.9-1.61,3.1-2.11
		c1.2-0.5,2.53-0.75,3.99-0.75c1.43,0,2.69,0.23,3.78,0.69s2.05,1.08,2.88,1.86l-0.9,1.25c-0.06,0.09-0.13,0.17-0.22,0.23
		c-0.09,0.06-0.21,0.09-0.36,0.09c-0.17,0-0.37-0.09-0.62-0.27c-0.24-0.18-0.56-0.38-0.95-0.61c-0.39-0.22-0.88-0.43-1.47-0.61
		c-0.59-0.18-1.31-0.27-2.17-0.27c-1.04,0-1.98,0.18-2.84,0.54c-0.86,0.36-1.6,0.88-2.22,1.56c-0.62,0.68-1.1,1.51-1.45,2.49
		s-0.52,2.08-0.52,3.32c0,1.25,0.18,2.36,0.54,3.34s0.85,1.81,1.47,2.48c0.62,0.68,1.35,1.19,2.2,1.55s1.76,0.53,2.74,0.53
		c0.6,0,1.14-0.04,1.62-0.11c0.48-0.07,0.92-0.18,1.33-0.33c0.41-0.15,0.78-0.34,1.13-0.57c0.35-0.23,0.7-0.5,1.04-0.82
		C154.72,54.68,154.88,54.61,155.04,54.61z"/>
	<path class="st13" d="M172.02,56.54l-0.01,2.21h-12.35V38.7h12.35v2.21h-9.64v6.66h7.81v2.13h-7.81v6.84H172.02z"/>
	<path class="st13" d="M189.37,40.98h-6.49v17.77h-2.7V40.98h-6.51V38.7h15.7V40.98z"/>
	<path class="st13" d="M206.68,58.75h-2.1c-0.24,0-0.44-0.06-0.59-0.18c-0.15-0.12-0.26-0.28-0.34-0.46l-1.88-4.84h-9l-1.88,4.84
		c-0.06,0.17-0.16,0.32-0.32,0.45c-0.16,0.13-0.35,0.2-0.59,0.2h-2.1l8.02-20.05h2.74L206.68,58.75z M201.03,51.31l-3.15-8.16
		c-0.09-0.24-0.19-0.52-0.29-0.85c-0.1-0.32-0.2-0.66-0.29-1.03c-0.2,0.76-0.4,1.39-0.6,1.89l-3.15,8.14H201.03z"/>
	<path class="st13" d="M219.58,41.84c-0.08,0.14-0.17,0.25-0.27,0.32c-0.1,0.07-0.22,0.1-0.36,0.1c-0.16,0-0.34-0.08-0.56-0.24
		c-0.21-0.16-0.48-0.33-0.8-0.53c-0.32-0.19-0.71-0.37-1.16-0.52c-0.45-0.16-1-0.24-1.64-0.24c-0.61,0-1.14,0.08-1.6,0.24
		c-0.46,0.16-0.85,0.38-1.16,0.67c-0.31,0.28-0.55,0.61-0.71,0.99s-0.24,0.79-0.24,1.22c0,0.56,0.14,1.02,0.41,1.39
		s0.64,0.68,1.09,0.94c0.45,0.26,0.97,0.49,1.54,0.68s1.16,0.39,1.76,0.59s1.19,0.44,1.76,0.69c0.57,0.26,1.09,0.58,1.54,0.97
		c0.45,0.39,0.82,0.87,1.09,1.44c0.27,0.57,0.41,1.27,0.41,2.1c0,0.88-0.15,1.7-0.45,2.47c-0.3,0.77-0.73,1.44-1.31,2.01
		c-0.57,0.57-1.28,1.02-2.11,1.34c-0.83,0.33-1.78,0.49-2.85,0.49c-1.31,0-2.49-0.24-3.55-0.71c-1.06-0.47-1.97-1.11-2.73-1.91
		l0.78-1.29c0.07-0.1,0.17-0.19,0.27-0.26c0.11-0.07,0.23-0.1,0.36-0.1c0.12,0,0.26,0.05,0.41,0.15s0.33,0.22,0.52,0.37
		s0.42,0.31,0.67,0.49c0.25,0.18,0.54,0.34,0.86,0.49c0.32,0.15,0.69,0.27,1.1,0.37c0.41,0.1,0.87,0.15,1.39,0.15
		c0.64,0,1.22-0.09,1.72-0.27c0.5-0.18,0.93-0.43,1.28-0.75c0.35-0.32,0.62-0.71,0.8-1.15c0.19-0.45,0.28-0.95,0.28-1.5
		c0-0.61-0.14-1.1-0.41-1.49c-0.27-0.39-0.64-0.71-1.08-0.97c-0.45-0.26-0.96-0.48-1.54-0.67c-0.58-0.18-1.17-0.37-1.76-0.56
		c-0.6-0.19-1.18-0.41-1.76-0.66c-0.58-0.25-1.09-0.58-1.54-0.98s-0.81-0.9-1.08-1.5c-0.28-0.6-0.41-1.35-0.41-2.23
		c0-0.71,0.14-1.39,0.41-2.06c0.27-0.66,0.68-1.25,1.2-1.76c0.53-0.51,1.18-0.92,1.94-1.23s1.65-0.46,2.65-0.46
		c1.12,0,2.14,0.18,3.06,0.53c0.92,0.35,1.73,0.87,2.43,1.54L219.58,41.84z"/>
	<path class="st13" d="M246.48,58.75h-2.41c-0.49,0-0.86-0.19-1.09-0.57l-5.2-7.16c-0.16-0.22-0.33-0.38-0.51-0.48
		c-0.18-0.1-0.46-0.15-0.85-0.15h-2.06v8.37h-2.7V38.7h5.67c1.27,0,2.36,0.13,3.29,0.38c0.92,0.26,1.69,0.63,2.29,1.11
		c0.6,0.49,1.05,1.07,1.34,1.76s0.43,1.45,0.43,2.3c0,0.71-0.11,1.37-0.34,1.99c-0.22,0.62-0.55,1.17-0.97,1.66
		c-0.42,0.49-0.94,0.91-1.55,1.25c-0.61,0.35-1.3,0.61-2.08,0.78c0.35,0.2,0.64,0.48,0.9,0.85L246.48,58.75z M237.22,48.41
		c0.78,0,1.48-0.1,2.08-0.29c0.6-0.19,1.11-0.46,1.51-0.81s0.71-0.77,0.92-1.25c0.21-0.48,0.31-1.02,0.31-1.61
		c0-1.19-0.39-2.09-1.18-2.7c-0.78-0.61-1.96-0.91-3.53-0.91h-2.97v7.57H237.22z"/>
	<path class="st13" d="M265.44,38.7v20.05h-2.71v-9.12h-10.81v9.12h-2.71V38.7h2.71v8.94h10.81V38.7H265.44z"/>
</g>
</svg>
