<?xml version="1.0" encoding="utf-8"?>
<!-- Generator: Adobe Illustrator 24.3.0, SVG Export Plug-In . SVG Version: 6.00 Build 0)  -->
<svg version="1.1" id="Capa_1" xmlns="http://www.w3.org/2000/svg" xmlns:xlink="http://www.w3.org/1999/xlink" x="0px" y="0px"
	 viewBox="0 0 200 200" style="enable-background:new 0 0 200 200;" xml:space="preserve">
<style type="text/css">
	.st0{opacity:0.62;fill:#FFFFFF;stroke:#000000;stroke-miterlimit:10;}
	.st1{opacity:0.63;fill:#DDCECC;}
	.st2{opacity:0.35;fill:#D6D6D6;}
	.st3{fill:#787571;}
</style>
<path class="st3" d="M108.31,41.24h-4.91v4.91h4.91V41.24z"/>
<path class="st3" d="M150.92,86.37c-0.23-0.26-0.51-0.48-0.83-0.62c-0.32-0.14-0.66-0.22-1.01-0.21h-8.34l5.82-33.08
	c0.07-0.33,0.06-0.68-0.02-1.01l-5.82-23.46c-0.11-0.46-0.36-0.88-0.71-1.2c-0.35-0.32-0.78-0.54-1.25-0.62
	c-0.47-0.08-0.95-0.03-1.39,0.16c-0.44,0.19-0.81,0.49-1.08,0.89l-13.5,20.05c-0.19,0.29-0.32,0.61-0.37,0.96l-5.25,29.69V53.63
	c0-0.65-0.26-1.28-0.72-1.74s-1.08-0.72-1.74-0.72h-4.98c1.63-2.11,2.52-4.7,2.53-7.36c-0.01-2.83-0.99-5.56-2.77-7.75
	c-1.79-2.19-4.27-3.7-7.04-4.27v-5.15h-4.91v5.15c-2.77,0.57-5.25,2.08-7.04,4.27c-1.79,2.19-2.77,4.93-2.77,7.75
	c0.01,2.67,0.9,5.25,2.53,7.36h-4.98c-0.65,0-1.28,0.26-1.74,0.72c-0.46,0.46-0.72,1.08-0.72,1.74v25.89L82.6,78.2
	c-0.02-0.12-0.05-0.23-0.1-0.34l-8.47-47.97c-0.05-0.32-0.16-0.62-0.34-0.89c-0.17-0.27-0.39-0.51-0.66-0.69
	c-0.26-0.19-0.56-0.32-0.87-0.38c-0.31-0.07-0.64-0.07-0.96-0.01L51.88,31.3c-0.32,0.05-0.62,0.16-0.89,0.34
	c-0.27,0.17-0.51,0.39-0.69,0.66c-0.19,0.26-0.32,0.56-0.38,0.87c-0.07,0.31-0.07,0.64-0.01,0.96l9.06,51.41h-8.02
	c-0.35,0-0.69,0.07-1.01,0.21s-0.6,0.36-0.83,0.62c-0.23,0.26-0.4,0.56-0.51,0.89c-0.1,0.33-0.13,0.68-0.08,1.02l2.45,19.63
	c0.07,0.59,0.36,1.14,0.81,1.54c0.45,0.4,1.02,0.62,1.62,0.62h2.58l7.26,61.64c0.07,0.59,0.36,1.14,0.81,1.54
	c0.45,0.4,1.02,0.62,1.62,0.62h68.71c0.6,0,1.18-0.22,1.62-0.62c0.45-0.4,0.73-0.95,0.81-1.54l7.26-61.64h2.58
	c0.6,0,1.18-0.22,1.62-0.62c0.45-0.4,0.73-0.95,0.81-1.54l2.45-19.63c0.05-0.34,0.02-0.69-0.08-1.02
	C151.32,86.93,151.15,86.63,150.92,86.37L150.92,86.37z M135.75,85.53h-4.98l5.69-32.37l4.83,0.86L135.75,85.53z M137.28,34.54
	l1.01,4l-3.31-0.59L137.28,34.54z M131.98,42.42l7.58,1.33l1.3,5.23l-11.88-2.11L131.98,42.42z M126.82,51.47l4.81,0.86l-5.84,33.2
	h-4.98L126.82,51.47z M100,36.46c1.46,0,2.88,0.43,4.09,1.24c1.21,0.81,2.15,1.96,2.71,3.3c0.56,1.35,0.7,2.83,0.42,4.25
	c-0.28,1.43-0.99,2.74-2.01,3.77c-1.03,1.03-2.34,1.73-3.77,2.01c-1.43,0.28-2.91,0.14-4.25-0.42c-1.35-0.56-2.49-1.5-3.3-2.71
	c-0.81-1.21-1.24-2.63-1.24-4.09c0.01-1.95,0.78-3.82,2.16-5.2C96.18,37.24,98.05,36.46,100,36.46L100,36.46z M87.73,56.09h24.54V61
	H87.73V56.09z M112.27,65.9v19.63h-4.91V65.9H112.27z M102.45,65.9v19.63h-4.91V65.9H102.45z M87.73,65.9h4.91v19.63h-4.91V65.9z
	 M55.14,35.7l14.5-2.55l0.86,4.81l-9.67,1.72l0.86,4.83l9.64-1.72l0.86,4.83l-4.83,0.86l0.86,4.83l4.83-0.86l0.83,4.83l-4.81,0.86
	l0.86,4.83l4.81-0.86l0.86,4.83l-9.67,1.72l0.86,4.83l9.67-1.72l0.83,4.83l-4.81,0.86l0.86,4.83l4.83-0.86l0.71,4.07H63.93
	L55.14,35.7z M132.17,168.97H67.83l-6.92-58.89h78.18L132.17,168.97z M144.47,105.17H55.53l-1.84-14.72h92.61L144.47,105.17z"/>
</svg>
