<?xml version="1.0" encoding="utf-8"?>
<!-- Generator: Adobe Illustrator 24.3.0, SVG Export Plug-In . SVG Version: 6.00 Build 0)  -->
<svg version="1.1" id="Capa_1" xmlns="http://www.w3.org/2000/svg" xmlns:xlink="http://www.w3.org/1999/xlink" x="0px" y="0px"
	 viewBox="0 0 200 200" style="enable-background:new 0 0 200 200;" xml:space="preserve">
<style type="text/css">
	.st0{opacity:0.62;fill:#FFFFFF;stroke:#000000;stroke-miterlimit:10;}
	.st1{opacity:0.63;fill:#DDCECC;}
	.st2{opacity:0.35;fill:#D6D6D6;}
	.st3{fill:#787571;}
</style>
<path class="st3" d="M162.25,129.18c-0.48-1.21-1.2-2.31-2.12-3.24c-0.92-0.92-2.01-1.65-3.22-2.14c-1.17-0.49-2.42-0.75-3.69-0.75
	c-1.27,0-2.52,0.25-3.69,0.75l-27.63,9.79c0.09-0.55,0.15-1.11,0.15-1.67c0-2.46-0.98-4.83-2.72-6.57c-1.74-1.74-4.1-2.72-6.57-2.72
	h-7.16c-6.37-0.01-12.64-1.56-18.27-4.54c-6.25-3.31-13.22-5.03-20.29-5.03H56.2v-7.7c0-0.58-0.23-1.13-0.64-1.53
	c-0.41-0.41-0.96-0.64-1.53-0.64H39.25c-0.58,0-1.13,0.23-1.53,0.64c-0.41,0.41-0.64,0.96-0.64,1.53v53.17
	c0,0.58,0.23,1.13,0.64,1.53c0.41,0.41,0.96,0.64,1.53,0.64h14.78c0.58,0,1.13-0.23,1.53-0.64c0.41-0.41,0.64-0.96,0.64-1.53v-4.88
	c3.9,0.18,7.75,0.91,11.44,2.17l11.15,3.95c5.72,2.01,11.73,3.04,17.8,3.04h2.17c6.5-0.29,12.89-1.76,18.86-4.34l40-17.08
	c2.15-1.09,3.81-2.95,4.67-5.2C163.14,133.92,163.13,131.43,162.25,129.18L162.25,129.18z M51.86,156.36H41.42v-48.83h10.44V156.36z
	 M155.85,137.52l-39.87,17.04c-5.5,2.37-11.38,3.7-17.36,3.93c-6.27,0.26-12.53-0.67-18.45-2.76l-11.11-3.93
	c-4.15-1.45-8.48-2.29-12.87-2.5v-31.9h10.85c6.36-0.01,12.63,1.55,18.25,4.54c6.26,3.3,13.23,5.03,20.31,5.03h7.16
	c0.65,0,1.3,0.13,1.9,0.38c0.6,0.25,1.15,0.62,1.61,1.08c0.46,0.46,0.82,1.01,1.07,1.61c0.25,0.6,0.37,1.25,0.37,1.9
	c0,0.71-0.15,1.4-0.44,2.05c-0.3,0.64-0.73,1.21-1.27,1.66l-3.65,1.28H88.69c-0.58,0-1.13,0.23-1.53,0.64
	c-0.41,0.41-0.64,0.96-0.64,1.53c0,0.58,0.23,1.13,0.64,1.53c0.41,0.41,0.96,0.64,1.53,0.64h24.09l38.37-13.37
	c0.65-0.28,1.36-0.43,2.07-0.43s1.42,0.15,2.07,0.43c0.66,0.27,1.26,0.67,1.77,1.18c0.5,0.51,0.9,1.11,1.16,1.78
	c0.49,1.21,0.52,2.56,0.08,3.79c-0.44,1.23-1.31,2.26-2.45,2.89V137.52z"/>
<path class="st3" d="M69.67,99.86h55.95c1.91,0,3.75-0.76,5.1-2.11c1.35-1.35,2.12-3.18,2.12-5.1V81.57
	c1.32-0.24,2.51-0.93,3.37-1.96c0.86-1.03,1.33-2.32,1.34-3.66v-5.9c0-1.34-0.47-2.64-1.33-3.67c-0.86-1.03-2.06-1.72-3.38-1.95
	v-8.85c-0.01-1.91-0.77-3.75-2.12-5.1c-1.35-1.35-3.19-2.12-5.1-2.12h-1.52l2.82-2.91c0.4-0.41,0.63-0.96,0.63-1.53
	c0-0.57-0.23-1.12-0.63-1.53l-16.91-16.99c-0.41-0.4-0.96-0.63-1.53-0.63c-0.57,0-1.12,0.23-1.53,0.63l-2.73,2.73l-11.81-5.88
	c-0.51-0.26-1.1-0.31-1.65-0.13c-0.27,0.09-0.52,0.23-0.74,0.42c-0.22,0.19-0.39,0.41-0.52,0.67l-12.5,25.15h-7.34
	c-1.91,0.01-3.75,0.77-5.1,2.12c-1.35,1.35-2.12,3.19-2.12,5.1v37.09c0.01,1.91,0.77,3.75,2.12,5.1S67.76,99.86,69.67,99.86
	L69.67,99.86z M133.21,75.99c0,0.37-0.15,0.72-0.41,0.98c-0.26,0.26-0.61,0.41-0.98,0.41h-12.26c-0.12,0-0.24-0.05-0.32-0.13
	c-0.09-0.09-0.13-0.2-0.13-0.32v-7.81c0-0.12,0.05-0.24,0.13-0.32c0.09-0.09,0.2-0.13,0.32-0.13h12.26c0.37,0,0.72,0.15,0.98,0.41
	c0.26,0.26,0.41,0.61,0.41,0.98V75.99z M108.5,29.98l13.91,13.91l-4.45,4.45H90.03L108.5,29.98z M92.42,27.07l8.57,4.34L83.97,48.41
	H81.8L92.42,27.07z M66.79,55.57c0-0.77,0.3-1.5,0.85-2.04c0.54-0.54,1.28-0.85,2.04-0.85h55.95c0.76,0.01,1.49,0.31,2.03,0.85
	c0.54,0.54,0.85,1.27,0.85,2.03v8.68h-8.94c-1.27,0-2.49,0.51-3.39,1.4c-0.9,0.9-1.4,2.12-1.4,3.39v7.77c0,1.27,0.51,2.49,1.4,3.39
	c0.9,0.9,2.12,1.4,3.39,1.4h8.94v10.98c-0.01,0.76-0.31,1.49-0.85,2.03c-0.54,0.54-1.27,0.84-2.03,0.84H69.67
	c-0.38,0-0.75-0.07-1.1-0.21c-0.35-0.14-0.67-0.35-0.94-0.62c-0.27-0.27-0.48-0.58-0.63-0.93c-0.15-0.35-0.22-0.72-0.22-1.1V55.57z"
	/>
</svg>
