<?xml version="1.0" encoding="utf-8"?>
<!-- Generator: Adobe Illustrator 24.3.0, SVG Export Plug-In . SVG Version: 6.00 Build 0)  -->
<svg version="1.1" id="Capa_1" xmlns="http://www.w3.org/2000/svg" xmlns:xlink="http://www.w3.org/1999/xlink" x="0px" y="0px"
	 viewBox="0 0 200 200" style="enable-background:new 0 0 200 200;" xml:space="preserve">
<style type="text/css">
	.st0{opacity:0.62;fill:#FFFFFF;stroke:#000000;stroke-miterlimit:10;}
	.st1{opacity:0.63;fill:#DDCECC;}
	.st2{opacity:0.35;fill:#D6D6D6;}
	.st3{fill:#787571;}
</style>
<path class="st3" d="M156.22,78.68c-0.35-0.52-0.86-0.91-1.45-1.13c-0.59-0.21-1.23-0.23-1.83-0.05
	c-0.91,0.28-22.65,7.03-28.57,23.42c-4.87,13.84,3.07,29.46,6.09,34.54c-7.33,7.22-17.19,11.28-27.47,11.31
	c-3.13-2.39-6.08-5-8.83-7.82c4.38-7.03,21.73-37.75,12.13-64.47C95.57,44.65,55.9,32.43,54.21,32.03c-0.6-0.18-1.24-0.17-1.83,0.05
	c-0.59,0.21-1.1,0.61-1.45,1.13c-0.98,1.36-23.77,36.06-13.07,65.85c9.51,26.44,41.85,39.04,50.16,41.9
	c7.73,8.55,17.17,15.38,27.71,20.05c10.54,4.67,21.93,7.09,33.46,7.09c0.78,0,1.52-0.31,2.07-0.86c0.55-0.55,0.86-1.29,0.86-2.07
	c0-0.78-0.31-1.52-0.86-2.07s-1.29-0.86-2.07-0.86c-13.52,0.01-26.8-3.57-38.48-10.37c9.75-1.71,18.67-6.58,25.39-13.86
	c4.94-1.73,22.13-8.66,27.28-23.02C169.34,98.49,156.85,79.5,156.22,78.68z M43.37,97.07c-8.36-23.3,6.81-51.38,11.26-58.83
	c8.17,2.9,37.77,14.87,46.14,38.29c8.08,22.46-5.71,49.34-10.7,57.94c-11.41-13.74-17.65-31.04-17.63-48.9
	c0-0.78-0.31-1.52-0.86-2.07c-0.55-0.55-1.29-0.86-2.07-0.86c-0.78,0-1.52,0.31-2.07,0.86c-0.55,0.55-0.86,1.29-0.86,2.07
	c-0.05,16.45,4.85,32.54,14.05,46.18C68.56,126.06,49.78,114.86,43.37,97.07z M157.91,112.99c-2.58,7.17-9.2,12.25-14.96,15.48
	c3.46-6.49,5.28-13.72,5.29-21.08c0-0.78-0.31-1.52-0.86-2.07s-1.29-0.86-2.07-0.86s-1.52,0.31-2.07,0.86s-0.86,1.29-0.86,2.07
	c-0.02,8.45-2.76,16.66-7.82,23.42c-3.02-5.64-8.22-17.7-4.68-27.82c3.96-10.98,17.4-17.07,22.65-19.09
	C155.38,88.75,161.87,102.01,157.91,112.99z"/>
</svg>
