<?xml version="1.0" encoding="utf-8"?>
<!-- Generator: Adobe Illustrator 24.3.0, SVG Export Plug-In . SVG Version: 6.00 Build 0)  -->
<svg version="1.1" id="Capa_1" xmlns="http://www.w3.org/2000/svg" xmlns:xlink="http://www.w3.org/1999/xlink" x="0px" y="0px"
	 viewBox="0 0 200 200" style="enable-background:new 0 0 200 200;" xml:space="preserve">
<style type="text/css">
	.st0{opacity:0.62;fill:#FFFFFF;stroke:#000000;stroke-miterlimit:10;}
	.st1{opacity:0.63;fill:#DDCECC;}
	.st2{opacity:0.35;fill:#D6D6D6;}
	.st3{fill:#787571;}
</style>
<g>
	<path class="st3" d="M178.68,106.01l-12.84-28.25c-2.17-4.77-6.93-7.83-12.17-7.83h-23.62V59.9c-0.01-5.53-4.49-10.02-10.02-10.02
		H36.49c-5.53,0.01-10.02,4.49-10.02,10.02V100c-0.02,1.85,1.46,3.36,3.31,3.37c1.85,0.02,3.36-1.46,3.37-3.31c0-0.02,0-0.04,0-0.06
		V59.9c0-1.84,1.5-3.34,3.34-3.34h83.54c1.84,0,3.34,1.5,3.34,3.34v53.47c0,1.84-1.5,3.34-3.34,3.34h-40.1
		c-1.85,0.02-3.33,1.53-3.31,3.37c0.02,1.82,1.49,3.29,3.31,3.31h40.1c5.53-0.01,10.02-4.49,10.02-10.02V76.61h23.62
		c2.62,0,5,1.53,6.08,3.92l1.26,2.77h-14.25c-3.69,0-6.68,2.99-6.68,6.68v13.37c0,3.69,2.99,6.68,6.68,6.68h26.3
		c0.29,0.94,0.43,1.91,0.44,2.89v13.81c0,1.84-1.5,3.34-3.34,3.34H159.8c-1.85-9.04-10.67-14.87-19.71-13.03
		c-6.56,1.34-11.69,6.47-13.03,13.03H72.91c-1.85-9.04-10.67-14.87-19.71-13.03c-6.56,1.34-11.69,6.47-13.03,13.03h-3.68
		c-1.84,0-3.34-1.5-3.34-3.34v-3.34c1.85-0.02,3.33-1.53,3.31-3.37c-0.02-1.82-1.49-3.29-3.31-3.31H23.13
		c-1.85,0.02-3.33,1.53-3.31,3.37c0.02,1.82,1.49,3.29,3.31,3.31h3.34v3.34c0.01,5.53,4.49,10.02,10.02,10.02h3.68
		c1.85,9.04,10.67,14.87,19.71,13.03c6.56-1.34,11.69-6.47,13.03-13.03h54.14c1.85,9.04,10.67,14.87,19.71,13.03
		c6.56-1.34,11.69-6.47,13.03-13.03h10.36c5.53-0.01,10.02-4.49,10.02-10.02v-13.81C180.19,110.53,179.67,108.18,178.68,106.01z
		 M56.54,143.44c-5.54,0-10.02-4.49-10.02-10.02c0-5.54,4.49-10.02,10.02-10.02s10.02,4.49,10.02,10.02
		C66.56,138.95,62.08,143.43,56.54,143.44z M143.42,143.44c-5.54,0-10.02-4.49-10.02-10.02c0-5.54,4.49-10.02,10.02-10.02
		s10.02,4.49,10.02,10.02C153.44,138.95,148.96,143.43,143.42,143.44L143.42,143.44z M146.77,89.97h17.29l6.08,13.37h-23.37V89.97z"
		/>
	<path class="st3" d="M23.88,104.96h20.53c2.27-0.02,4.09-1.88,4.07-4.14c-0.02-2.24-1.83-4.04-4.07-4.07H23.88
		c-2.27,0.02-4.09,1.88-4.07,4.14C19.84,103.13,21.65,104.94,23.88,104.96z"/>
</g>
</svg>
